<svg viewBox="0 0 100 100" fill="none" xmlns="http://www.w3.org/2000/svg">
  <defs>
    <linearGradient id="gGrad1" x1="0%" y1="0%" x2="100%" y2="100%">
      <stop offset="0%" style="stop-color:#667eea"/>
      <stop offset="100%" style="stop-color:#764ba2"/>
    </linearGradient>
    <linearGradient id="gGrad2" x1="100%" y1="0%" x2="0%" y2="100%">
      <stop offset="0%" style="stop-color:#a78bfa"/>
      <stop offset="100%" style="stop-color:#8b5cf6"/>
    </linearGradient>
  </defs>
  
  <!-- G formada como un anillo abierto -->
  <path 
    d="M75,35 
       Q75,10 50,10 
       Q15,10 15,50 
       Q15,90 50,90 
       Q75,90 75,70
       L75,55 L55,55 L55,65 L60,65
       Q60,75 50,75
       Q30,75 30,50
       Q30,25 50,25
       Q65,25 65,35
       Z" 
    fill="url(#gGrad1)"/>
  
  <!-- Faceta de profundidad -->
  <path 
    d="M65,35 
       Q65,18 50,18 
       Q22,18 22,50 
       Q22,82 50,82 
       Q68,82 68,68
       L68,60 L55,60 L55,65 L60,65
       Q60,72 50,72
       Q35,72 35,50
       Q35,28 50,28
       Q60,28 60,35
       Z" 
    fill="url(#gGrad2)" opacity="0.5"/>
  
  <!-- Pequeño diamante en el centro de la G -->
  <polygon points="62,50 68,44 74,50 68,56" fill="white" opacity="0.9"/>
  <polygon points="68,44 74,50 68,50" fill="#667eea" opacity="0.4"/>
  
  <!-- Brillo -->
  <circle cx="40" cy="35" r="4" fill="white" opacity="0.4"/>
</svg>
